<?xml version="1.0" encoding="utf-8"?>
<svg version="1.1" xmlns:xlink="http://www.w3.org/1999/xlink" width="29px" height="41px" xmlns="http://www.w3.org/2000/svg">
  <g transform="matrix(1 0 0 1 -1288 -797 )">
    <path d="M 24.7122416534181 3.50055803571429  C 23.8362480127186 3.50055803571429  22.8373078961314 5.21651785714286  21.7154213036566 8.6484375  L 19.087440381558 16.1529017857143  L 21.7845786963434 16.6333705357143  C 24.3203497615262 9.75427827380952  25.5882352941176 5.80375744047619  25.5882352941176 4.78180803571429  C 25.5882352941176 3.92764136904761  25.2962374138845 3.50055803571429  24.7122416534181 3.50055803571429  Z M 15.5719395866455 24.5611049107143  C 14.9802596714361 24.4543340773809  14.7305246422893 24.3895089285714  14.8227344992051 24.3666294642857  L 15.5834658187599 26.3800223214286  C 16.1520932697403 25.7393973214286  16.6976682564918 25.2284226190476  17.2201907790143 24.8470982142857  L 16.4594594594595 24.7212611607143  C 16.4594594594595 24.7212611607143  16.1636195018548 24.6678757440476  15.5719395866455 24.5611049107143  Z M 8.32193958664547 3.00864955357143  C 8.1682564917859 3.27557663690476  8.09141494435612 3.56156994047619  8.09141494435612 3.86662946428571  C 8.09141494435612 5.36142113095238  9.31319554848967 9.33482142857143  11.7567567567568 15.7868303571429  C 12.033386327504 15.6343005952381  12.4099099099099 15.5580357142857  12.8863275039746 15.5580357142857  C 13.1168521462639 15.5580357142857  13.6931637519873 15.5961681547619  14.6152623211447 15.6724330357143  L 11.8259141494436 7.64174107142857  C 10.6732909379968 4.28608630952381  9.72813990461049 2.60825892857143  8.99046104928458 2.60825892857143  C 8.6984631690514 2.60825892857143  8.47562268150504 2.7417224702381  8.32193958664547 3.00864955357143  Z M 6.85810810810811 20.1568080357143  C 6.46621621621622 20.5686383928571  6.27027027027027 20.9270833333333  6.27027027027027 21.2321428571429  C 6.27027027027027 21.78125  6.66600423953365 22.6888020833333  7.45747217806041 23.9547991071429  C 8.24894011658718 25.2207961309524  9.15182829888712 26.3876488095238  10.1661367249603 27.4553571428571  C 11.1804451510334 28.5230654761905  11.9488606253312 29.0569196428571  12.4713831478537 29.0569196428571  C 12.6865394806571 29.0569196428571  12.8824854266031 28.957775297619  13.0592209856916 28.7594866071429  C 13.2359565447801 28.5611979166667  13.3243243243243 28.3552827380952  13.3243243243243 28.1417410714286  C 13.3243243243243 27.7756696428571  13.078431372549 26.9977678571429  12.5866454689984 25.8080357142857  C 12.386857445681 25.3199404761905  12.1409644939057 24.7708333333333  11.8489666136725 24.1607142857143  C 11.5569687334393 23.5505952380952  11.1919713831479 22.871837797619  10.7539745627981 22.1244419642857  C 10.3159777424483 21.3770461309524  9.84340222575517 20.7593005952381  9.3362480127186 20.2712053571429  C 8.82909379968203 19.7831101190476  8.35267620561738 19.5390625  7.90699523052464 19.5390625  C 7.59962904080551 19.5390625  7.25 19.7449776785714  6.85810810810811 20.1568080357143  Z M 3.25039745627981 26.826171875  C 2.83545310015898 27.5049293154762  2.62798092209857 28.1951264880952  2.62798092209857 28.8967633928571  C 2.62798092209857 29.5221354166667  2.82008479067303 30.3152901785714  3.20429252782194 31.2762276785714  C 4.11102278749338 33.4879092261905  5.52106518282989 35.2191220238095  7.43441971383148 36.4698660714286  C 9.34777424483307 37.7206101190476  11.5108638049815 38.3459821428571  13.9236883942766 38.3459821428571  C 17.4122946475888 38.3459821428571  20.3476417594065 37.0494791666667  22.7297297297297 34.4564732142857  C 25.0657127715951 31.8787202380952  26.2337042925278 28.6222098214286  26.2337042925278 24.6869419642857  C 26.2337042925278 24.0310639880952  26.2260201377848 23.5200892857143  26.2106518282989 23.1540178571429  C 26.1952835188129 22.7879464285714  26.1069157392687 22.3151041666667  25.9455484896661 21.7354910714286  C 25.7841812400636 21.1558779761905  25.5498145204028 20.7287946428571  25.2424483306836 20.4542410714286  C 24.3818229994701 19.7068452380952  22.7566242713302 19.1310453869048  20.3668521462639 18.7268415178571  C 17.9770800211977 18.3226376488095  15.898516163222 18.1205357142857  14.131160572337 18.1205357142857  C 13.5625331213567 18.1205357142857  13.1860095389507 18.2044270833333  13.0015898251192 18.3722098214286  C 12.8171701112878 18.4484747023809  12.724960254372 18.7154017857143  12.724960254372 19.1729910714286  C 12.724960254372 19.6915922619048  12.8901695813461 20.149181547619  13.2205882352941 20.5457589285714  C 13.5510068892422 20.9423363095238  13.9774774774775 21.2473958333333  14.5 21.4609375  C 15.0225225225225 21.6744791666667  15.6180445151033 21.8537016369048  16.2865659777424 21.9986049107143  C 16.9550874403816 22.1435081845238  17.6274509803922 22.231212797619  18.3036565977742 22.26171875  C 18.9798622151563 22.2922247023809  19.6330153683095 22.3227306547619  20.2631160572337 22.3532366071429  C 20.8932167461579 22.3837425595238  21.4311075781664 22.3837425595238  21.8767885532591 22.3532366071429  L 22.4069952305246 22.3532366071429  C 22.7758346581876 22.3532366071429  23.0832008479067 22.4981398809524  23.329093799682 22.7879464285714  C 23.5596184419714 23.0777529761905  23.705617382088 23.4972098214286  23.7670906200318 24.0463169642857  C 23.336777954425 24.473400297619  22.5990990990991 24.8852306547619  21.5540540540541 25.2818080357143  C 20.6165871754107 25.6173735119048  19.9019607843137 25.9681919642857  19.4101748807631 26.3342633928571  C 18.4266030736619 27.035900297619  17.5928722840488 27.9053199404762  16.9089825119237 28.9425223214286  C 16.2250927397986 29.979724702381  15.8831478537361 31.0245535714286  15.8831478537361 32.0770089285714  C 15.8831478537361 32.5498511904762  16.0253047164812 33.2247953869048  16.3096184419714 34.1018415178571  C 16.5939321674616 34.9788876488095  16.7360890302067 35.6462053571429  16.7360890302067 36.1037946428571  L 16.6669316375199 36.3783482142857  C 16.605458399576 36.5613839285714  16.5747217806041 36.6681547619048  16.5747217806041 36.6986607142857  C 14.4692633810281 36.546130952381  13.3473767885533 34.8988095238095  13.2090620031797 31.7566964285714  C 13.086115527292 31.7872023809524  12.7710651828299 31.8024553571429  12.2639109697933 31.8024553571429  C 12.2946475887652 31.9092261904762  12.3100158982512 32.0693824404762  12.3100158982512 32.2829241071429  C 12.3100158982512 33.0913318452381  11.9988076311606 33.7739025297619  11.3763910969793 34.3306361607143  C 10.7539745627981 34.8873697916667  10.0278219395866 35.1657366071429  9.19793322734499 35.1657366071429  C 7.93773184949656 35.1657366071429  6.65832008479067 34.5708705357143  5.35969793322734 33.3811383928571  C 4.06107578166402 32.19140625  3.41176470588235 30.9787946428571  3.41176470588235 29.7433035714286  C 3.41176470588235 29.2247023809524  3.66534181240064 28.7137276785714  4.1724960254372 28.2103794642857  C 4.97164811870694 29.1865699404762  5.43269740328564 29.7661830357143  5.55564387917329 29.94921875  C 6.73900370959195 31.5355282738095  7.76099629040806 32.3286830357143  8.62162162162162 32.3286830357143  C 8.8060413354531 32.3286830357143  9.00967143614202 32.2638578869048  9.23251192368839 32.1342075892857  C 9.45535241123476 32.0045572916667  9.56677265500795 31.8482142857143  9.56677265500795 31.6651785714286  C 9.56677265500795 31.1465773809524  8.89440911499735 30.0407366071429  7.54968203497615 28.34765625  C 6.20495495495496 26.6545758928571  5.30975092739799 25.8080357142857  4.86406995230525 25.8080357142857  C 4.20323264440912 25.8080357142857  3.66534181240064 26.1474144345238  3.25039745627981 26.826171875  Z M 2.5127186009539 35.6576450892857  C 0.837572866984632 33.6061197916667  0 31.421130952381  0 29.1026785714286  C 0 27.5621279761905  0.326576576576577 26.3190104166667  0.97972972972973 25.3733258928571  C 1.63288288288288 24.4276413690476  2.68177000529942 23.7565104166667  4.12639109697933 23.3599330357143  C 3.69607843137255 22.231212797619  3.48092209856916 21.4380580357143  3.48092209856916 20.98046875  C 3.48092209856916 20.0347842261905  3.94965553789083 19.0967261904762  4.88712241653418 18.1662946428571  C 5.82458929517753 17.2358630952381  6.76205617382088 16.7706473214286  7.69952305246423 16.7706473214286  C 8.14520402755697 16.7706473214286  8.68309485956545 16.8850446428571  9.31319554848967 17.1138392857143  C 6.80816110227875 10.0669642857143  5.55564387917329 5.74274553571429  5.55564387917329 4.14118303571429  C 5.55564387917329 2.92094494047619  5.8706942236354 1.92568824404761  6.50079491255962 1.15541294642857  C 7.13089560148384 0.385137648809527  8.04531001589825 0  9.24403815580286 0  C 11.2572866984632 0  13.7546369899311 4.43098958333334  16.7360890302067 13.29296875  C 16.8282988871224 13.5522693452381  16.8897721250662 13.7276785714286  16.9205087440382 13.8191964285714  C 17.0127186009539 13.5751488095238  17.2355590885003 12.9688430059524  17.5890302066773 12.0002790178571  C 17.9425013248543 11.0317150297619  18.2767620561738 10.1279761904762  18.5918124006359 9.2890625  C 18.906862745098 8.45014880952381  19.3218071012189 7.47777157738095  19.8366454689984 6.37193080357143  C 20.351483836778 5.2660900297619  20.8471118177001 4.32803199404761  21.3235294117647 3.55775669642857  C 21.7999470058294 2.78748139880952  22.3416799152093 2.12779017857143  22.9487281399046 1.57868303571429  C 23.5557763645999 1.02957589285714  24.1436142024377 0.755022321428573  24.7122416534181 0.755022321428573  C 25.803391626921 0.755022321428573  26.6640169581346 1.12872023809524  27.2941176470588 1.87611607142857  C 27.924218335983 2.6235119047619  28.2392686804452 3.55394345238095  28.2392686804452 4.66741071428571  C 28.2392686804452 6.31473214285714  27.0174880763116 10.5093005952381  24.5739268680445 17.2511160714286  C 25.5113937466879 17.4799107142857  26.2836512983572 17.8307291666667  26.8906995230525 18.3035714285714  C 27.4977477477477 18.7764136904762  27.947270800212 19.3712797619048  28.2392686804452 20.0881696428571  C 28.5312665606783 20.8050595238095  28.7310545839958 21.5181361607143  28.8386327503975 22.2273995535714  C 28.9462109167992 22.9366629464286  29 23.7793898809524  29 24.7555803571429  C 29 27.0435267857143  28.63884472708 29.1789434523809  27.9165341812401 31.1618303571429  C 27.1942236354001 33.1447172619048  26.179915209327 34.8606770833333  24.8736089030207 36.3097098214286  C 23.5673025967144 37.7587425595238  21.9459459459459 38.9027157738095  20.0095389507154 39.7416294642857  C 18.0731319554849 40.5805431547619  15.9369369369369 41  13.6009538950715 41  C 11.8950715421304 41  10.1815050344462 40.6796875  8.46025437201908 40.0390625  C 6.17037625861155 39.1696428571429  4.18786433492316 37.7091703869048  2.5127186009539 35.6576450892857  Z " fill-rule="nonzero" fill="#0f4c81" stroke="none" transform="matrix(1 0 0 1 1288 797 )" />
  </g>
</svg>