<?xml version="1.0" encoding="utf-8"?>
<svg version="1.1" xmlns:xlink="http://www.w3.org/1999/xlink" width="17px" height="32px" xmlns="http://www.w3.org/2000/svg">
  <g transform="matrix(1 0 0 1 -668 -734 )">
    <path d="M 16.1291759465479 8.13461538461538  C 16.3689680772086 8.13461538461538  16.5835189309577 8.23076923076923  16.7728285077951 8.42307692307692  C 17 8.67948717948718  17.0441722345954 8.96153846153846  16.9053452115813 9.26923076923077  L 6.6826280623608 31.5192307692308  C 6.51855976243504 31.8397435897436  6.25352635486266 32  5.88752783964365 32  C 5.83704528582034 32  5.74870081662955 31.9871794871795  5.62249443207127 31.9615384615385  C 5.4079435783222 31.8974358974359  5.24703043801039 31.775641025641  5.13975501113586 31.5961538461538  C 5.03247958426132 31.4166666666667  5.00408314773571 31.224358974359  5.05456570155902 31.0192307692308  L 8.78396436525613 15.4807692307692  L 1.09799554565702 17.4230769230769  C 1.0475129918337 17.4358974358974  0.971789161098738 17.4423076923077  0.870824053452116 17.4423076923077  C 0.643652561247216 17.4423076923077  0.448032665181886 17.3717948717949  0.283964365256125 17.2307692307692  C 0.0567928730512249 17.0384615384615  -0.0252412769116555 16.7884615384615  0.0378619153674833 16.4807692307692  L 3.84298440979955 0.615384615384617  C 3.89346696362287 0.435897435897434  3.99443207126949 0.28846153846154  4.14587973273942 0.173076923076923  C 4.29732739420935 0.0576923076923066  4.47401633259094 0  4.67594654788419 0  L 10.8853006681514 0  C 11.1250927988122 0  11.3270230141054 0.0801282051282008  11.4910913140312 0.240384615384617  C 11.6551596139569 0.400641025641026  11.7371937639198 0.589743589743588  11.7371937639198 0.807692307692307  C 11.7371937639198 0.910256410256409  11.7056421677803 1.02564102564103  11.6425389755011 1.15384615384615  L 8.40534521158129 10.0576923076923  L 15.902004454343 8.17307692307692  C 16.0029695619896 8.14743589743589  16.0786933927246 8.13461538461538  16.1291759465479 8.13461538461538  Z " fill-rule="nonzero" fill="#0f4c81" stroke="none" transform="matrix(1 0 0 1 668 734 )" />
  </g>
</svg>