<?xml version="1.0" encoding="utf-8"?>
<svg version="1.1" xmlns:xlink="http://www.w3.org/1999/xlink" width="396px" height="621px" xmlns="http://www.w3.org/2000/svg">
  <defs>
    <filter x="350px" y="236px" width="396px" height="621px" filterUnits="userSpaceOnUse" id="filter141">
      <feOffset dx="0" dy="0" in="SourceAlpha" result="shadowOffsetInner" />
      <feGaussianBlur stdDeviation="5" in="shadowOffsetInner" result="shadowGaussian" />
      <feComposite in2="shadowGaussian" operator="atop" in="SourceAlpha" result="shadowComposite" />
      <feColorMatrix type="matrix" values="0 0 0 0 0  0 0 0 0 0  0 0 0 0 0  0 0 0 0.2 0  " in="shadowComposite" />
    </filter>
    <g id="widget142">
      <path d="M 104 34  L 273 34  C 284.2 34.7727272727273  293 24.5727272727273  293 11.5909090909091  L 293 4.63636363636363  C 293 2.03999999999999  294.76 0  296.998806307301 0  L 331 0  C 355.64 0  375 22.44  375 51  L 0 51  C 0 22.44  19.3599999999997 0  44 0  L 80 0  C 82.2399999999998 0  84 2.03999999999999  84 4.64778661569534  L 84 11.5909090909091  C 84 24.5727272727273  92.8000000000002 34.7727272727273  104 34  Z M 337 600  L 38 600  C 16.72 600  0 583.28  0 562  L 0 51  L 375 51  L 375 562  C 375 583.28  358.28 600  337 600  Z M 292.996516947717 0  L 83.9999999927459 0  L 292.996516947717 0  Z M 0 51  L 375 51  L 0 51  Z " fill-rule="nonzero" fill="#fafafa" stroke="none" transform="matrix(1 0 0 1 360 246 )" />
    </g>
  </defs>
  <g transform="matrix(1 0 0 1 -350 -236 )">
    <use xlink:href="#widget142" filter="url(#filter141)" />
    <use xlink:href="#widget142" />
  </g>
</svg>