<?xml version="1.0" encoding="utf-8"?>
<svg version="1.1" xmlns:xlink="http://www.w3.org/1999/xlink" width="87px" height="32px" xmlns="http://www.w3.org/2000/svg">
  <g transform="matrix(1 0 0 1 -641 -294 )">
    <path d="M 642 310  A 15 15 0 0 1 657 295 L 712 295  A 15 15 0 0 1 727 310 A 15 15 0 0 1 712 325 L 657 325  A 15 15 0 0 1 642 310 Z " fill-rule="nonzero" fill="#ffffff" stroke="none" fill-opacity="0.6" />
    <path d="M 641.5 310  A 15.5 15.5 0 0 1 657 294.5 L 712 294.5  A 15.5 15.5 0 0 1 727.5 310 A 15.5 15.5 0 0 1 712 325.5 L 657 325.5  A 15.5 15.5 0 0 1 641.5 310 Z " stroke-width="1" stroke="#ececec" fill="none" stroke-opacity="0.6" />
  </g>
</svg>