<?xml version="1.0" encoding="utf-8"?>
<svg version="1.1" xmlns:xlink="http://www.w3.org/1999/xlink" width="24px" height="18px" xmlns="http://www.w3.org/2000/svg">
  <g transform="matrix(1 0 0 1 -3426 -1641 )">
    <path d="M 3433.44852915725 1642.5  C 3433.44852915725 1642.5  3432.3792696746 1642.90097230599  3432.3792696746 1642.90097230599  C 3432.3792696746 1642.90097230599  3427.77449495416 1650  3427.77449495416 1650  C 3427.77449495416 1650  3432.3792696746 1657.09902769401  3432.3792696746 1657.09902769401  C 3432.3792696746 1657.09902769401  3433.44852915725 1657.5  3433.44852915725 1657.5  C 3433.44852915725 1657.5  3447 1657.5  3447 1657.5  C 3447.84 1657.5  3448.5 1656.84  3448.5 1656  C 3448.5 1656  3448.5 1644  3448.5 1644  C 3448.5 1643.16  3447.84 1642.5  3447 1642.5  C 3447 1642.5  3433.44852915725 1642.5  3433.44852915725 1642.5  Z " fill-rule="nonzero" fill="#ffffff" stroke="none" fill-opacity="0" />
    <path d="M 3433.36568610483 1642  C 3433.36568610483 1642  3432.05284644973 1642.49231487066  3432.05284644973 1642.49231487066  C 3432.05284644973 1642.49231487066  3427.18299663611 1650  3427.18299663611 1650  C 3427.18299663611 1650  3432.05284644973 1657.50768512934  3432.05284644973 1657.50768512934  C 3432.05284644973 1657.50768512934  3433.36568610483 1658  3433.36568610483 1658  C 3433.36568610483 1658  3447 1658  3447 1658  C 3448.12 1658  3449 1657.12  3449 1656  C 3449 1656  3449 1644  3449 1644  C 3449 1642.88  3448.12 1642  3447 1642  C 3447 1642  3433.36568610483 1642  3433.36568610483 1642  Z " stroke-width="2" stroke="#333333" fill="none" />
  </g>
</svg>