<?xml version="1.0" encoding="utf-8"?>
<svg version="1.1" xmlns:xlink="http://www.w3.org/1999/xlink" width="30px" height="40px" xmlns="http://www.w3.org/2000/svg">
  <g transform="matrix(1 0 0 1 -306 -1456 )">
    <path d="M 30 3  L 30 37  C 30 38.6799999999998  28.6799999999998 40  27 40  L 3 40  C 1.32000000000016 40  0 38.6799999999998  0 37  L 0 3  C 0 1.32000000000016  1.32000000000016 0  3 0  L 27 0  C 28.6799999999998 0  30 1.32000000000016  30 3  Z M 6 5  C 5.44000000000005 5  5 5.44000000000005  5 6  L 5 28  C 5 28.5599999999999  5.44000000000005 29  6 29  L 24 29  C 24.5599999999999 29  25 28.5599999999999  25 28  L 25 6  C 25 5.44000000000005  24.5599999999999 5  24 5  L 6 5  Z M 6 31  L 6 33  L 24 33  L 24 31  L 6 31  Z M 9 37  L 21 37  L 21 35  L 9 35  L 9 37  Z " fill-rule="nonzero" fill="#218aef" stroke="none" transform="matrix(1 0 0 1 306 1456 )" />
  </g>
</svg>