<?xml version="1.0" encoding="utf-8"?>
<svg version="1.1" xmlns:xlink="http://www.w3.org/1999/xlink" width="18px" height="18px" xmlns="http://www.w3.org/2000/svg">
  <g transform="matrix(1 0 0 1 -362 -80 )">
    <path d="M 18 9  C 18 14.04  14.04 18  9 18  C 3.96000000000004 18  0 14.04  0 9  C 0 3.96000000000001  3.96000000000004 0  9 0  C 14.04 0  18 3.96000000000001  18 9  Z M 2 9  C 2 12.92  5.08000000000004 16  9 16  C 12.92 16  16 12.92  16 9  C 16 5.08000000000001  12.92 2  9 2  C 5.08000000000004 2  2 5.08000000000001  2 9  Z " fill-rule="nonzero" fill="#000000" stroke="none" transform="matrix(1 0 0 1 362 80 )" />
  </g>
</svg>