<?xml version="1.0" encoding="utf-8"?>
<svg version="1.1" xmlns:xlink="http://www.w3.org/1999/xlink" width="12px" height="12px" viewBox="1620 582  12 12" xmlns="http://www.w3.org/2000/svg">
  <path d="M 1626 582  C 1629.36 582  1632 584.64  1632 588  C 1632 591.36  1629.36 594  1626 594  C 1622.64 594  1620 591.36  1620 588  C 1620 584.64  1622.64 582  1626 582  Z " fill-rule="nonzero" fill="#ffffff" stroke="none" />
  <path d="M 1626 582.5  C 1629.08 582.5  1631.5 584.92  1631.5 588  C 1631.5 591.08  1629.08 593.5  1626 593.5  C 1622.92 593.5  1620.5 591.08  1620.5 588  C 1620.5 584.92  1622.92 582.5  1626 582.5  Z " stroke-width="1" stroke="#797979" fill="none" />
  <path d="M 1626 591  C 1624.32 591  1623 589.68  1623 588  C 1623 586.32  1624.32 585  1626 585  C 1627.68 585  1629 586.32  1629 588  C 1629 589.68  1627.68 591  1626 591  " fill-rule="nonzero" fill="#797979" stroke="none" />
</svg>