<?xml version="1.0" encoding="utf-8"?>
<svg version="1.1" xmlns:xlink="http://www.w3.org/1999/xlink" width="12px" height="12px" viewBox="1470 582  12 12" xmlns="http://www.w3.org/2000/svg">
  <path d="M 1476 582  C 1479.36 582  1482 584.64  1482 588  C 1482 591.36  1479.36 594  1476 594  C 1472.64 594  1470 591.36  1470 588  C 1470 584.64  1472.64 582  1476 582  Z " fill-rule="nonzero" fill="#ffffff" stroke="none" />
  <path d="M 1476 582.5  C 1479.08 582.5  1481.5 584.92  1481.5 588  C 1481.5 591.08  1479.08 593.5  1476 593.5  C 1472.92 593.5  1470.5 591.08  1470.5 588  C 1470.5 584.92  1472.92 582.5  1476 582.5  Z " stroke-width="1" stroke="#797979" fill="none" />
  <path d="M 1476 591  C 1474.32 591  1473 589.68  1473 588  C 1473 586.32  1474.32 585  1476 585  C 1477.68 585  1479 586.32  1479 588  C 1479 589.68  1477.68 591  1476 591  " fill-rule="nonzero" fill="#797979" stroke="none" />
</svg>