<?xml version="1.0" encoding="utf-8"?>
<svg version="1.1" xmlns:xlink="http://www.w3.org/1999/xlink" width="66px" height="30px" xmlns="http://www.w3.org/2000/svg">
  <g transform="matrix(1 0 0 1 -1160 -676 )">
    <path d="M 1172 676  C 1172 676  1169 676.681818181818  1169 676.681818181818  C 1169 676.681818181818  1160 691  1160 691  C 1160 691  1169 705.318181818182  1169 705.318181818182  C 1169 705.318181818182  1172 706  1172 706  C 1172 706  1223 706  1223 706  C 1224.68 706  1226 704.68  1226 703  C 1226 703  1226 679  1226 679  C 1226 677.32  1224.68 676  1223 676  C 1223 676  1172 676  1172 676  Z " fill-rule="nonzero" fill="#e53c42" stroke="none" />
  </g>
</svg>