<svg t="1586435262977" class="icon" viewBox="0 0 1024 1024" version="1.1" xmlns="http://www.w3.org/2000/svg" p-id="3771" width="200" height="200"><path d="M886.158 836c-0.458-0.298-38.068-24.956-69.228-45.184a295.58 295.58 0 0 1-141.4 34.964A300.088 300.088 0 0 1 544 795.824l31.762-64.764a227.586 227.586 0 0 0 99.754 22.584c45 0 87.278-12.236 122.248-35.386l39.442-0.242a8888.28 8888.28 0 0 1 32.658 21.176V595.4c0-65.736-50.98-125.36-126.856-148.366L763.94 378C870.44 410.296 942 497.66 942 595.4v210.436zM823 610a52 52 0 1 1-52-52 52 52 0 0 1 52 52zM400 745.89c-63.33 0-123.642-15.428-175.888-44.812-39.464 25.572-89.794 58.536-90.384 58.922L78 729.894v-260.95c0-75.154 34.296-145.438 96.57-197.902C235.07 220.072 315.13 192 400 192s164.93 28.072 225.43 79.042C687.706 323.506 722 393.8 722 468.944s-34.294 145.438-96.57 197.904C564.93 717.82 484.872 745.89 400 745.89z m0-481.904c-137.85 0-250 91.944-250 204.958v194.444c18.6-12.114 38.516-25.054 54.06-35.062l39.352 0.242c44.848 29.66 99 45.336 156.588 45.336 137.85 0 250-91.944 250-204.96S537.85 263.986 400 263.986zM533 512a52 52 0 1 1 52-52 52 52 0 0 1-52 52z m-133 0a52 52 0 1 1 52-52 52 52 0 0 1-52 52z m-133 0a52 52 0 1 1 52-52 52 52 0 0 1-52 52z" p-id="3772"></path></svg>