<?xml version="1.0" encoding="utf-8"?>
<svg version="1.1" xmlns:xlink="http://www.w3.org/1999/xlink" width="20px" height="20px" preserveAspectRatio="xMinYMid meet" viewBox="289 454  20 18" xmlns="http://www.w3.org/2000/svg">
  <defs>
    <mask fill="white" id="clip26">
      <path d="M 240.5 489  L 357.5 489  L 357.5 534  L 240.5 534  Z M 240.5 451  L 357.5 451  L 357.5 572  L 240.5 572  Z " fill-rule="evenodd" />
    </mask>
  </defs>
  <path d="M 299 489  L 299 463  M 299 534  L 299 560  " stroke-width="2" stroke="#9da1c4" fill="none" />
  <path d="M 294.707106781187 468.107106781187  L 299 463.814213562373  L 303.292893218813 468.107106781187  L 304.707106781187 466.692893218813  L 299.707106781187 461.692893218813  L 299 460.985786437627  L 298.292893218813 461.692893218813  L 293.292893218813 466.692893218813  L 294.707106781187 468.107106781187  Z M 303.292893218813 554.892893218813  L 299 559.185786437627  L 294.707106781187 554.892893218813  L 293.292893218813 556.307106781187  L 298.292893218813 561.307106781187  L 299 562.014213562373  L 299.707106781187 561.307106781187  L 304.707106781187 556.307106781187  L 303.292893218813 554.892893218813  Z " fill-rule="nonzero" fill="#9da1c4" stroke="none" mask="url(#clip26)" />
</svg>