<?xml version="1.0" encoding="utf-8"?>
<svg version="1.1" xmlns:xlink="http://www.w3.org/1999/xlink" width="173px" height="10px" preserveAspectRatio="xMinYMid meet" viewBox="100 431  173 8" xmlns="http://www.w3.org/2000/svg">
  <defs>
    <mask fill="white" id="clip4">
      <path d="M 65 404  L 185 404  L 185 466  L 65 466  Z M 65 404  L 283 404  L 283 572  L 65 572  Z " fill-rule="evenodd" />
    </mask>
  </defs>
  <path d="M 271 435  L 110 435  A 5 5 0 0 0 105 440 L 105 560  " stroke-width="2" stroke="#9da1c4" fill="none" mask="url(#clip4)" />
  <path d="M 265.892893218813 430.707106781187  L 270.185786437627 435  L 265.892893218813 439.292893218813  L 267.307106781187 440.707106781187  L 272.307106781187 435.707106781187  L 273.014213562373 435  L 272.307106781187 434.292893218813  L 267.307106781187 429.292893218813  L 265.892893218813 430.707106781187  Z M 109.292893218813 554.892893218813  L 105 559.185786437627  L 100.707106781187 554.892893218813  L 99.2928932188134 556.307106781187  L 104.292893218813 561.307106781187  L 105 562.014213562373  L 105.707106781187 561.307106781187  L 110.707106781187 556.307106781187  L 109.292893218813 554.892893218813  Z " fill-rule="nonzero" fill="#9da1c4" stroke="none" mask="url(#clip4)" />
</svg>