<?xml version="1.0" encoding="utf-8"?>
<svg version="1.1" xmlns:xlink="http://www.w3.org/1999/xlink" width="439px" height="10px" preserveAspectRatio="xMinYMid meet" viewBox="78 99  439 8" xmlns="http://www.w3.org/2000/svg">
  <defs>
    <mask fill="white" id="clip8">
      <path d="M 235 80  L 355 80  L 355 125  L 235 125  Z M 68 80  L 522 80  L 522 125  L 68 125  Z " fill-rule="evenodd" />
    </mask>
  </defs>
  <path d="M 235 103  L 80 103  M 355 103  L 510 103  " stroke-width="2" stroke="#9da1c4" fill="none" />
  <path d="M 504.892893218813 98.7071067811866  L 509.185786437627 103  L 504.892893218813 107.292893218813  L 506.307106781187 108.707106781187  L 511.307106781187 103.707106781187  L 512.014213562373 103  L 511.307106781187 102.292893218813  L 506.307106781187 97.2928932188134  L 504.892893218813 98.7071067811866  Z M 85.1071067811866 107.292893218813  L 80.8142135623731 103  L 85.1071067811866 98.7071067811866  L 83.6928932188135 97.2928932188134  L 78.6928932188135 102.292893218813  L 77.9857864376269 103  L 78.6928932188135 103.707106781187  L 83.6928932188135 108.707106781187  L 85.1071067811866 107.292893218813  Z " fill-rule="nonzero" fill="#9da1c4" stroke="none" mask="url(#clip8)" />
</svg>