<?xml version="1.0" encoding="utf-8"?>
<svg version="1.1" xmlns:xlink="http://www.w3.org/1999/xlink" width="20px" height="20px" preserveAspectRatio="xMinYMid meet" viewBox="500 275  20 18" xmlns="http://www.w3.org/2000/svg">
  <defs>
    <mask fill="white" id="clip38">
      <path d="M 191 262  L 269 262  L 269 307  L 191 307  Z M 48 163  L 522 163  L 522 307  L 48 307  Z " fill-rule="evenodd" />
    </mask>
  </defs>
  <path d="M 58 175  L 58 279  A 5 5 0 0 0 63 284 L 510 284  " stroke-width="2" stroke="#9da1c4" fill="none" mask="url(#clip38)" />
  <path d="M 53.7071067811865 180.107106781187  L 58 175.814213562373  L 62.2928932188135 180.107106781187  L 63.7071067811865 178.692893218813  L 58.7071067811865 173.692893218813  L 58 172.985786437627  L 57.2928932188135 173.692893218813  L 52.2928932188135 178.692893218813  L 53.7071067811865 180.107106781187  Z M 504.892893218813 279.707106781187  L 509.185786437627 284  L 504.892893218813 288.292893218813  L 506.307106781187 289.707106781187  L 511.307106781187 284.707106781187  L 512.014213562373 284  L 511.307106781187 283.292893218813  L 506.307106781187 278.292893218813  L 504.892893218813 279.707106781187  Z " fill-rule="nonzero" fill="#9da1c4" stroke="none" mask="url(#clip38)" />
</svg>