<?xml version="1.0" encoding="utf-8"?>
<svg version="1.1" xmlns:xlink="http://www.w3.org/1999/xlink" width="20px" height="20px" preserveAspectRatio="xMinYMid meet" viewBox="317 426  20 18" xmlns="http://www.w3.org/2000/svg">
  <defs>
    <mask fill="white" id="clip41">
      <path d="M 438.5 421  L 549.5 421  L 549.5 449  L 438.5 449  Z M 315 421  L 549.5 421  L 549.5 572  L 315 572  Z " fill-rule="evenodd" />
    </mask>
  </defs>
  <path d="M 327 435  L 531 435  A 5 5 0 0 1 536 440 L 536 560  " stroke-width="2" stroke="#9da1c4" fill="none" mask="url(#clip41)" />
  <path d="M 332.107106781187 439.292893218813  L 327.814213562373 435  L 332.107106781187 430.707106781187  L 330.692893218813 429.292893218813  L 325.692893218813 434.292893218813  L 324.985786437627 435  L 325.692893218813 435.707106781187  L 330.692893218813 440.707106781187  L 332.107106781187 439.292893218813  Z M 540.292893218813 554.892893218813  L 536 559.185786437627  L 531.707106781187 554.892893218813  L 530.292893218813 556.307106781187  L 535.292893218813 561.307106781187  L 536 562.014213562373  L 536.707106781187 561.307106781187  L 541.707106781187 556.307106781187  L 540.292893218813 554.892893218813  Z " fill-rule="nonzero" fill="#9da1c4" stroke="none" mask="url(#clip41)" />
</svg>