<svg t="1586435108036" class="icon" viewBox="0 0 1024 1024" version="1.1" xmlns="http://www.w3.org/2000/svg" p-id="2892" width="200" height="200"><path d="M728.212068 1024c-19.425061 0-38.528434-6.965802-54.748979-20.575718L284.541193 677.404941c-19.796241 49.490602-65.092514 84.208259-117.713397 84.20826-88.798513 0-161.042419-79.184963-161.042419-176.433997V438.847867c0-97.298524 72.243906-176.446369 161.042419-176.446369 52.620883 0 97.929529 34.705285 117.713397 84.208259L673.450716 20.602789c26.267137-22.035691 60.056846-26.712552 90.505939-12.496377 33.851572 15.787502 54.872705 50.591768 54.872705 90.815255v684.108592a30.115031 30.115031 0 0 1-60.21769 0V98.921667c0-19.796241-10.393026-31.711103-20.130302-36.239493-6.334797-2.981809-16.01021-4.614999-26.353746 4.082974L284.380349 425.336933a30.115031 30.115031 0 0 1-49.490602-23.074994c0-43.898164-30.535701-79.630379-68.049578-79.630378-55.590319 0-100.812356 52.138349-100.812357 116.216306v146.331337c0 64.077957 45.222038 116.216306 100.812357 116.216307 37.550994 0 68.049578-35.732215 68.049578-79.642752a30.115031 30.115031 0 0 1 49.490602-23.06262L712.139995 957.274296c10.331163 8.660855 20.006576 7.027665 26.341373 4.058229 9.737276-4.52839 20.130302-16.443253 20.130302-36.239493a30.115031 30.115031 0 1 1 60.21769 0c0 40.223487-21.033506 75.027753-54.885078 90.815255a84.134023 84.134023 0 0 1-35.732214 8.091713zM939.202877 722.800196a30.127404 30.127404 0 0 1-25.190717-46.570656c59.388722-91.050335 59.054661-226.666957-0.816595-329.780627a30.10637 30.10637 0 0 1 52.076486-30.226385c70.833424 121.981961 70.524108 283.556404-0.816595 392.918262a30.090286 30.090286 0 0 1-25.252579 13.659406z" p-id="2893" data-spm-anchor-id="a313x.7781069.0.i0"></path></svg>