<?xml version="1.0" encoding="utf-8"?>
<svg version="1.1" xmlns:xlink="http://www.w3.org/1999/xlink" width="18px" height="18px" preserveAspectRatio="xMinYMid meet" viewBox="290 615  18 16" xmlns="http://www.w3.org/2000/svg">
  <defs>
    <mask fill="white" id="clip3">
      <path d="M 240.5 551  L 357.5 551  L 357.5 596  L 240.5 596  Z M 240.5 514  L 357.5 514  L 357.5 633  L 240.5 633  Z " fill-rule="evenodd" />
    </mask>
  </defs>
  <path d="M 299.5 551  L 299.5 524  M 299.5 596  L 299.5 623  " stroke-width="1" stroke="#9da1c4" fill="none" />
  <path d="M 294.853553390593 529.053553390593  L 299.5 524.407106781186  L 304.146446609407 529.053553390593  L 304.853553390593 528.346446609407  L 299.853553390593 523.346446609407  L 299.5 522.992893218813  L 299.146446609407 523.346446609407  L 294.146446609407 528.346446609407  L 294.853553390593 529.053553390593  Z M 304.146446609407 617.946446609407  L 299.5 622.592893218814  L 294.853553390593 617.946446609407  L 294.146446609407 618.653553390593  L 299.146446609407 623.653553390593  L 299.5 624.007106781187  L 299.853553390593 623.653553390593  L 304.853553390593 618.653553390593  L 304.146446609407 617.946446609407  Z " fill-rule="nonzero" fill="#9da1c4" stroke="none" mask="url(#clip3)" />
</svg>