<?xml version="1.0" encoding="utf-8"?>
<svg version="1.1" xmlns:xlink="http://www.w3.org/1999/xlink" width="10px" height="132px" preserveAspectRatio="xMidYMin meet" viewBox="101 492  8 132" xmlns="http://www.w3.org/2000/svg">
  <defs>
    <mask fill="white" id="clip5">
      <path d="M 65 466  L 185 466  L 185 528  L 65 528  Z M 65 466  L 282 466  L 282 633  L 65 633  Z " fill-rule="evenodd" />
    </mask>
  </defs>
  <path d="M 272 497.5  L 110 497.5  A 5 5 0 0 0 105.5 502.5 L 105.5 623  " stroke-width="1" stroke="#9da1c4" fill="none" mask="url(#clip5)" />
  <path d="M 266.946446609407 492.853553390593  L 271.592893218813 497.5  L 266.946446609407 502.146446609407  L 267.653553390593 502.853553390593  L 272.653553390593 497.853553390593  L 273.007106781187 497.5  L 272.653553390593 497.146446609407  L 267.653553390593 492.146446609407  L 266.946446609407 492.853553390593  Z M 110.146446609407 617.946446609407  L 105.5 622.592893218814  L 100.853553390593 617.946446609407  L 100.146446609407 618.653553390593  L 105.146446609407 623.653553390593  L 105.5 624.007106781187  L 105.853553390593 623.653553390593  L 110.853553390593 618.653553390593  L 110.146446609407 617.946446609407  Z " fill-rule="nonzero" fill="#9da1c4" stroke="none" mask="url(#clip5)" />
</svg>