<?xml version="1.0" encoding="utf-8"?>
<svg version="1.1" xmlns:xlink="http://www.w3.org/1999/xlink" width="152px" height="10px" preserveAspectRatio="xMinYMid meet" viewBox="161 111  152 8" xmlns="http://www.w3.org/2000/svg">
  <defs>
    <mask fill="white" id="clip8">
      <path d="M 106 104  L 226 104  L 226 166  L 106 166  Z M 106 104  L 322 104  L 322 312  L 106 312  Z " fill-rule="evenodd" />
    </mask>
  </defs>
  <path d="M 312 115.5  L 171 115.5  A 5 5 0 0 0 166.5 120.5 L 166.5 302  " stroke-width="1" stroke="#9da1c4" fill="none" mask="url(#clip8)" />
  <path d="M 306.946446609407 110.853553390593  L 311.592893218813 115.5  L 306.946446609407 120.146446609407  L 307.653553390593 120.853553390593  L 312.653553390593 115.853553390593  L 313.007106781187 115.5  L 312.653553390593 115.146446609407  L 307.653553390593 110.146446609407  L 306.946446609407 110.853553390593  Z M 171.146446609407 296.946446609407  L 166.5 301.592893218813  L 161.853553390593 296.946446609407  L 161.146446609407 297.653553390593  L 166.146446609407 302.653553390593  L 166.5 303.007106781187  L 166.853553390593 302.653553390593  L 171.853553390593 297.653553390593  L 171.146446609407 296.946446609407  Z " fill-rule="nonzero" fill="#9da1c4" stroke="none" mask="url(#clip8)" />
</svg>