<?xml version="1.0" encoding="utf-8"?>
<svg version="1.1" xmlns:xlink="http://www.w3.org/1999/xlink" width="18px" height="18px" preserveAspectRatio="xMinYMid meet" viewBox="345 107  18 16" xmlns="http://www.w3.org/2000/svg">
  <defs>
    <mask fill="white" id="clip14">
      <path d="M 458 114  L 536 114  L 536 159  L 458 159  Z M 344 106  L 536 106  L 536 312  L 344 312  Z " fill-rule="evenodd" />
    </mask>
  </defs>
  <path d="M 354 115.5  L 492 115.5  A 5 5 0 0 1 497.5 120.5 L 497.5 302  " stroke-width="1" stroke="#9da1c4" fill="none" mask="url(#clip14)" />
  <path d="M 359.053553390593 120.146446609407  L 354.407106781187 115.5  L 359.053553390593 110.853553390593  L 358.346446609407 110.146446609407  L 353.346446609407 115.146446609407  L 352.992893218813 115.5  L 353.346446609407 115.853553390593  L 358.346446609407 120.853553390593  L 359.053553390593 120.146446609407  Z M 502.146446609407 296.946446609407  L 497.5 301.592893218813  L 492.853553390593 296.946446609407  L 492.146446609407 297.653553390593  L 497.146446609407 302.653553390593  L 497.5 303.007106781187  L 497.853553390593 302.653553390593  L 502.853553390593 297.653553390593  L 502.146446609407 296.946446609407  Z " fill-rule="nonzero" fill="#9da1c4" stroke="none" mask="url(#clip14)" />
</svg>