<?xml version="1.0" encoding="utf-8"?>
<svg version="1.1" xmlns:xlink="http://www.w3.org/1999/xlink" width="10px" height="60px" preserveAspectRatio="xMidYMin meet" viewBox="331 165  8 60" xmlns="http://www.w3.org/2000/svg">
  <defs>
    <mask fill="white" id="clip16">
      <path d="M 283 179  L 387 179  L 387 207  L 283 207  Z M 283 156  L 387 156  L 387 229  L 283 229  Z " fill-rule="evenodd" />
    </mask>
  </defs>
  <path d="M 335.5 179  L 335.5 166  M 335.5 207  L 335.5 219  " stroke-width="1" stroke="#9da1c4" fill="none" />
  <path d="M 340.146446609407 213.946446609407  L 335.5 218.592893218813  L 330.853553390593 213.946446609407  L 330.146446609407 214.653553390593  L 335.146446609407 219.653553390593  L 335.5 220.007106781187  L 335.853553390593 219.653553390593  L 340.853553390593 214.653553390593  L 340.146446609407 213.946446609407  Z M 330.853553390593 171.053553390593  L 335.5 166.407106781187  L 340.146446609407 171.053553390593  L 340.853553390593 170.346446609407  L 335.853553390593 165.346446609407  L 335.5 164.992893218813  L 335.146446609407 165.346446609407  L 330.146446609407 170.346446609407  L 330.853553390593 171.053553390593  Z " fill-rule="nonzero" fill="#9da1c4" stroke="none" mask="url(#clip16)" />
</svg>