<?xml version="1.0" encoding="utf-8"?>
<svg version="1.1" xmlns:xlink="http://www.w3.org/1999/xlink" width="18px" height="18px" preserveAspectRatio="xMinYMid meet" viewBox="178 315  18 16" xmlns="http://www.w3.org/2000/svg">
  <defs>
    <mask fill="white" id="clip20">
      <path d="M 277.5 309  L 386.5 309  L 386.5 337  L 277.5 337  Z M 177 309  L 486 309  L 486 337  L 177 337  Z " fill-rule="evenodd" />
    </mask>
  </defs>
  <path d="M 277.5 323.5  L 187 323.5  M 386.5 323.5  L 476 323.5  " stroke-width="1" stroke="#9da1c4" fill="none" />
  <path d="M 192.053553390593 328.146446609407  L 187.407106781187 323.5  L 192.053553390593 318.853553390593  L 191.346446609407 318.146446609407  L 186.346446609407 323.146446609407  L 185.992893218813 323.5  L 186.346446609407 323.853553390593  L 191.346446609407 328.853553390593  L 192.053553390593 328.146446609407  Z M 470.946446609407 318.853553390593  L 475.592893218813 323.5  L 470.946446609407 328.146446609407  L 471.653553390593 328.853553390593  L 476.653553390593 323.853553390593  L 477.007106781187 323.5  L 476.653553390593 323.146446609407  L 471.653553390593 318.146446609407  L 470.946446609407 318.853553390593  Z " fill-rule="nonzero" fill="#9da1c4" stroke="none" mask="url(#clip20)" />
</svg>