<?xml version="1.0" encoding="utf-8"?>
<svg version="1.1" xmlns:xlink="http://www.w3.org/1999/xlink" width="18px" height="18px" preserveAspectRatio="xMinYMid meet" viewBox="317 489  18 16" xmlns="http://www.w3.org/2000/svg">
  <defs>
    <mask fill="white" id="clip24">
      <path d="M 442 474  L 546 474  L 546 519  L 442 519  Z M 316 474  L 546 474  L 546 633  L 316 633  Z " fill-rule="evenodd" />
    </mask>
  </defs>
  <path d="M 326 497.5  L 531 497.5  A 5 5 0 0 1 536.5 502.5 L 536.5 623  " stroke-width="1" stroke="#9da1c4" fill="none" mask="url(#clip24)" />
  <path d="M 331.053553390593 502.146446609407  L 326.407106781187 497.5  L 331.053553390593 492.853553390593  L 330.346446609407 492.146446609407  L 325.346446609407 497.146446609407  L 324.992893218813 497.5  L 325.346446609407 497.853553390593  L 330.346446609407 502.853553390593  L 331.053553390593 502.146446609407  Z M 541.146446609407 617.946446609407  L 536.5 622.592893218814  L 531.853553390593 617.946446609407  L 531.146446609407 618.653553390593  L 536.146446609407 623.653553390593  L 536.5 624.007106781186  L 536.853553390593 623.653553390593  L 541.853553390593 618.653553390593  L 541.146446609407 617.946446609407  Z " fill-rule="nonzero" fill="#9da1c4" stroke="none" mask="url(#clip24)" />
</svg>