<?xml version="1.0" encoding="utf-8"?>
<svg version="1.1" xmlns:xlink="http://www.w3.org/1999/xlink" width="66px" height="30px" xmlns="http://www.w3.org/2000/svg">
  <g transform="matrix(1 0 0 1 43 -1267 )">
    <path d="M 11 1267  C 11 1267  14 1267.68181818182  14 1267.68181818182  C 14 1267.68181818182  23 1282  23 1282  C 23 1282  14 1296.31818181818  14 1296.31818181818  C 14 1296.31818181818  11 1297  11 1297  C 11 1297  -40 1297  -40 1297  C -41.68 1297  -43 1295.68  -43 1294  C -43 1294  -43 1270  -43 1270  C -43 1268.32  -41.68 1267  -40 1267  C -40 1267  11 1267  11 1267  Z " fill-rule="nonzero" fill="#e53c42" stroke="none" />
  </g>
</svg>