<?xml version="1.0" encoding="utf-8"?>
<svg version="1.1" xmlns:xlink="http://www.w3.org/1999/xlink" width="383px" height="45px" xmlns="http://www.w3.org/2000/svg">
  <g transform="matrix(1 0 0 1 -512 -2575 )">
    <path d="M 298.469333333333 10  L 298.469333333333 4  C 298.469333333333 1.75999999999999  300.262186666667 0  302.542784025038 0  L 337.178666666667 0  C 362.278613333334 0  382 19.36  382 44  L 0 44  C 0 19.36  19.7213866666663 0  44.8213333333333 0  L 81.4933333333333 0  C 83.7751466666664 0  85.568 1.75999999999999  85.568 4.00985511942343  L 85.568 10  C 85.568 21.2  94.5322666666668 30  105.941333333333 30  L 278.096 30  C 289.505066666666 30  298.469333333333 21.2  298.469333333333 10  Z M 298.465785264075 0  L 85.5679999926105 0  L 298.465785264075 0  Z M 0 44  L 382 44  L 0 44  Z " fill-rule="nonzero" fill="#f4f4f4" stroke="none" transform="matrix(1 0 0 1 512 2575 )" />
  </g>
</svg>