<?xml version="1.0" encoding="utf-8"?>
<svg version="1.1" xmlns:xlink="http://www.w3.org/1999/xlink" width="12px" height="12px" viewBox="2619 365  12 12" xmlns="http://www.w3.org/2000/svg">
  <path d="M 2625 365  C 2628.36 365  2631 367.64  2631 371  C 2631 374.36  2628.36 377  2625 377  C 2621.64 377  2619 374.36  2619 371  C 2619 367.64  2621.64 365  2625 365  Z " fill-rule="nonzero" fill="#ffffff" stroke="none" />
  <path d="M 2625 365.5  C 2628.08 365.5  2630.5 367.92  2630.5 371  C 2630.5 374.08  2628.08 376.5  2625 376.5  C 2621.92 376.5  2619.5 374.08  2619.5 371  C 2619.5 367.92  2621.92 365.5  2625 365.5  Z " stroke-width="1" stroke="#797979" fill="none" />
  <path d="M 2625 374  C 2623.32 374  2622 372.68  2622 371  C 2622 369.32  2623.32 368  2625 368  C 2626.68 368  2628 369.32  2628 371  C 2628 372.68  2626.68 374  2625 374  " fill-rule="nonzero" fill="#797979" stroke="none" />
</svg>