<?xml version="1.0" encoding="utf-8"?>
<svg version="1.1" xmlns:xlink="http://www.w3.org/1999/xlink" width="12px" height="12px" viewBox="2599 535  12 12" xmlns="http://www.w3.org/2000/svg">
  <path d="M 2605 535  C 2608.36 535  2611 537.64  2611 541  C 2611 544.36  2608.36 547  2605 547  C 2601.64 547  2599 544.36  2599 541  C 2599 537.64  2601.64 535  2605 535  Z " fill-rule="nonzero" fill="#ffffff" stroke="none" />
  <path d="M 2605 535.5  C 2608.08 535.5  2610.5 537.92  2610.5 541  C 2610.5 544.08  2608.08 546.5  2605 546.5  C 2601.92 546.5  2599.5 544.08  2599.5 541  C 2599.5 537.92  2601.92 535.5  2605 535.5  Z " stroke-width="1" stroke="#797979" fill="none" />
  <path d="M 2605 544  C 2603.32 544  2602 542.68  2602 541  C 2602 539.32  2603.32 538  2605 538  C 2606.68 538  2608 539.32  2608 541  C 2608 542.68  2606.68 544  2605 544  " fill-rule="nonzero" fill="#797979" stroke="none" />
</svg>