<?xml version="1.0" encoding="utf-8"?>
<svg version="1.1" xmlns:xlink="http://www.w3.org/1999/xlink" width="12px" height="12px" viewBox="2489 455  12 12" xmlns="http://www.w3.org/2000/svg">
  <path d="M 2495 455  C 2498.36 455  2501 457.64  2501 461  C 2501 464.36  2498.36 467  2495 467  C 2491.64 467  2489 464.36  2489 461  C 2489 457.64  2491.64 455  2495 455  Z " fill-rule="nonzero" fill="#ffffff" stroke="none" />
  <path d="M 2495 455.5  C 2498.08 455.5  2500.5 457.92  2500.5 461  C 2500.5 464.08  2498.08 466.5  2495 466.5  C 2491.92 466.5  2489.5 464.08  2489.5 461  C 2489.5 457.92  2491.92 455.5  2495 455.5  Z " stroke-width="1" stroke="#797979" fill="none" />
  <path d="M 2495 464  C 2493.32 464  2492 462.68  2492 461  C 2492 459.32  2493.32 458  2495 458  C 2496.68 458  2498 459.32  2498 461  C 2498 462.68  2496.68 464  2495 464  " fill-rule="nonzero" fill="#797979" stroke="none" />
</svg>