<?xml version="1.0" encoding="utf-8"?>
<svg version="1.1" xmlns:xlink="http://www.w3.org/1999/xlink" width="12px" height="12px" viewBox="2379 535  12 12" xmlns="http://www.w3.org/2000/svg">
  <path d="M 2385 535  C 2388.36 535  2391 537.64  2391 541  C 2391 544.36  2388.36 547  2385 547  C 2381.64 547  2379 544.36  2379 541  C 2379 537.64  2381.64 535  2385 535  Z " fill-rule="nonzero" fill="#ffffff" stroke="none" />
  <path d="M 2385 535.5  C 2388.08 535.5  2390.5 537.92  2390.5 541  C 2390.5 544.08  2388.08 546.5  2385 546.5  C 2381.92 546.5  2379.5 544.08  2379.5 541  C 2379.5 537.92  2381.92 535.5  2385 535.5  Z " stroke-width="1" stroke="#797979" fill="none" />
  <path d="M 2385 544  C 2383.32 544  2382 542.68  2382 541  C 2382 539.32  2383.32 538  2385 538  C 2386.68 538  2388 539.32  2388 541  C 2388 542.68  2386.68 544  2385 544  " fill-rule="nonzero" fill="#797979" stroke="none" />
</svg>