<?xml version="1.0" encoding="utf-8"?>
<svg version="1.1" xmlns:xlink="http://www.w3.org/1999/xlink" width="12px" height="12px" viewBox="2489 535  12 12" xmlns="http://www.w3.org/2000/svg">
  <path d="M 2495 535  C 2498.36 535  2501 537.64  2501 541  C 2501 544.36  2498.36 547  2495 547  C 2491.64 547  2489 544.36  2489 541  C 2489 537.64  2491.64 535  2495 535  Z " fill-rule="nonzero" fill="#ffffff" stroke="none" />
  <path d="M 2495 535.5  C 2498.08 535.5  2500.5 537.92  2500.5 541  C 2500.5 544.08  2498.08 546.5  2495 546.5  C 2491.92 546.5  2489.5 544.08  2489.5 541  C 2489.5 537.92  2491.92 535.5  2495 535.5  Z " stroke-width="1" stroke="#797979" fill="none" />
  <path d="M 2495 544  C 2493.32 544  2492 542.68  2492 541  C 2492 539.32  2493.32 538  2495 538  C 2496.68 538  2498 539.32  2498 541  C 2498 542.68  2496.68 544  2495 544  " fill-rule="nonzero" fill="#797979" stroke="none" />
</svg>