<?xml version="1.0" encoding="utf-8"?>
<svg version="1.1" xmlns:xlink="http://www.w3.org/1999/xlink" width="12px" height="12px" viewBox="2379 455  12 12" xmlns="http://www.w3.org/2000/svg">
  <path d="M 2385 455  C 2388.36 455  2391 457.64  2391 461  C 2391 464.36  2388.36 467  2385 467  C 2381.64 467  2379 464.36  2379 461  C 2379 457.64  2381.64 455  2385 455  Z " fill-rule="nonzero" fill="#ffffff" stroke="none" />
  <path d="M 2385 455.5  C 2388.08 455.5  2390.5 457.92  2390.5 461  C 2390.5 464.08  2388.08 466.5  2385 466.5  C 2381.92 466.5  2379.5 464.08  2379.5 461  C 2379.5 457.92  2381.92 455.5  2385 455.5  Z " stroke-width="1" stroke="#797979" fill="none" />
  <path d="M 2385 464  C 2383.32 464  2382 462.68  2382 461  C 2382 459.32  2383.32 458  2385 458  C 2386.68 458  2388 459.32  2388 461  C 2388 462.68  2386.68 464  2385 464  " fill-rule="nonzero" fill="#797979" stroke="none" />
</svg>