<?xml version="1.0" encoding="utf-8"?>
<svg version="1.1" xmlns:xlink="http://www.w3.org/1999/xlink" width="12px" height="12px" viewBox="3034 365  12 12" xmlns="http://www.w3.org/2000/svg">
  <path d="M 3040 365  C 3043.36 365  3046 367.64  3046 371  C 3046 374.36  3043.36 377  3040 377  C 3036.64 377  3034 374.36  3034 371  C 3034 367.64  3036.64 365  3040 365  Z " fill-rule="nonzero" fill="#ffffff" stroke="none" />
  <path d="M 3040 365.5  C 3043.08 365.5  3045.5 367.92  3045.5 371  C 3045.5 374.08  3043.08 376.5  3040 376.5  C 3036.92 376.5  3034.5 374.08  3034.5 371  C 3034.5 367.92  3036.92 365.5  3040 365.5  Z " stroke-width="1" stroke="#797979" fill="none" />
  <path d="M 3040 374  C 3038.32 374  3037 372.68  3037 371  C 3037 369.32  3038.32 368  3040 368  C 3041.68 368  3043 369.32  3043 371  C 3043 372.68  3041.68 374  3040 374  " fill-rule="nonzero" fill="#797979" stroke="none" />
</svg>