<?xml version="1.0" encoding="utf-8"?>
<svg version="1.1" xmlns:xlink="http://www.w3.org/1999/xlink" width="12px" height="12px" viewBox="3114 365  12 12" xmlns="http://www.w3.org/2000/svg">
  <path d="M 3120 365  C 3123.36 365  3126 367.64  3126 371  C 3126 374.36  3123.36 377  3120 377  C 3116.64 377  3114 374.36  3114 371  C 3114 367.64  3116.64 365  3120 365  Z " fill-rule="nonzero" fill="#ffffff" stroke="none" />
  <path d="M 3120 365.5  C 3123.08 365.5  3125.5 367.92  3125.5 371  C 3125.5 374.08  3123.08 376.5  3120 376.5  C 3116.92 376.5  3114.5 374.08  3114.5 371  C 3114.5 367.92  3116.92 365.5  3120 365.5  Z " stroke-width="1" stroke="#797979" fill="none" />
  <path d="M 3120 374  C 3118.32 374  3117 372.68  3117 371  C 3117 369.32  3118.32 368  3120 368  C 3121.68 368  3123 369.32  3123 371  C 3123 372.68  3121.68 374  3120 374  " fill-rule="nonzero" fill="#797979" stroke="none" />
</svg>