<?xml version="1.0" encoding="utf-8"?>
<svg version="1.1" xmlns:xlink="http://www.w3.org/1999/xlink" width="12px" height="12px" viewBox="3194 365  12 12" xmlns="http://www.w3.org/2000/svg">
  <path d="M 3200 365  C 3203.36 365  3206 367.64  3206 371  C 3206 374.36  3203.36 377  3200 377  C 3196.64 377  3194 374.36  3194 371  C 3194 367.64  3196.64 365  3200 365  Z " fill-rule="nonzero" fill="#ffffff" stroke="none" />
  <path d="M 3200 365.5  C 3203.08 365.5  3205.5 367.92  3205.5 371  C 3205.5 374.08  3203.08 376.5  3200 376.5  C 3196.92 376.5  3194.5 374.08  3194.5 371  C 3194.5 367.92  3196.92 365.5  3200 365.5  Z " stroke-width="1" stroke="#797979" fill="none" />
  <path d="M 3200 374  C 3198.32 374  3197 372.68  3197 371  C 3197 369.32  3198.32 368  3200 368  C 3201.68 368  3203 369.32  3203 371  C 3203 372.68  3201.68 374  3200 374  " fill-rule="nonzero" fill="#797979" stroke="none" />
</svg>