<?xml version="1.0" encoding="utf-8"?>
<svg version="1.1" xmlns:xlink="http://www.w3.org/1999/xlink" width="12px" height="12px" viewBox="3274 365  12 12" xmlns="http://www.w3.org/2000/svg">
  <path d="M 3280 365  C 3283.36 365  3286 367.64  3286 371  C 3286 374.36  3283.36 377  3280 377  C 3276.64 377  3274 374.36  3274 371  C 3274 367.64  3276.64 365  3280 365  Z " fill-rule="nonzero" fill="#ffffff" stroke="none" />
  <path d="M 3280 365.5  C 3283.08 365.5  3285.5 367.92  3285.5 371  C 3285.5 374.08  3283.08 376.5  3280 376.5  C 3276.92 376.5  3274.5 374.08  3274.5 371  C 3274.5 367.92  3276.92 365.5  3280 365.5  Z " stroke-width="1" stroke="#797979" fill="none" />
  <path d="M 3280 374  C 3278.32 374  3277 372.68  3277 371  C 3277 369.32  3278.32 368  3280 368  C 3281.68 368  3283 369.32  3283 371  C 3283 372.68  3281.68 374  3280 374  " fill-rule="nonzero" fill="#797979" stroke="none" />
</svg>