<?xml version="1.0" encoding="utf-8"?>
<svg version="1.1" xmlns:xlink="http://www.w3.org/1999/xlink" width="12px" height="12px" viewBox="3144 455  12 12" xmlns="http://www.w3.org/2000/svg">
  <path d="M 3150 455  C 3153.36 455  3156 457.64  3156 461  C 3156 464.36  3153.36 467  3150 467  C 3146.64 467  3144 464.36  3144 461  C 3144 457.64  3146.64 455  3150 455  Z " fill-rule="nonzero" fill="#ffffff" stroke="none" />
  <path d="M 3150 455.5  C 3153.08 455.5  3155.5 457.92  3155.5 461  C 3155.5 464.08  3153.08 466.5  3150 466.5  C 3146.92 466.5  3144.5 464.08  3144.5 461  C 3144.5 457.92  3146.92 455.5  3150 455.5  Z " stroke-width="1" stroke="#797979" fill="none" />
  <path d="M 3150 464  C 3148.32 464  3147 462.68  3147 461  C 3147 459.32  3148.32 458  3150 458  C 3151.68 458  3153 459.32  3153 461  C 3153 462.68  3151.68 464  3150 464  " fill-rule="nonzero" fill="#797979" stroke="none" />
</svg>