<?xml version="1.0" encoding="utf-8"?>
<svg version="1.1" xmlns:xlink="http://www.w3.org/1999/xlink" width="12px" height="12px" viewBox="3034 535  12 12" xmlns="http://www.w3.org/2000/svg">
  <path d="M 3040 535  C 3043.36 535  3046 537.64  3046 541  C 3046 544.36  3043.36 547  3040 547  C 3036.64 547  3034 544.36  3034 541  C 3034 537.64  3036.64 535  3040 535  Z " fill-rule="nonzero" fill="#ffffff" stroke="none" />
  <path d="M 3040 535.5  C 3043.08 535.5  3045.5 537.92  3045.5 541  C 3045.5 544.08  3043.08 546.5  3040 546.5  C 3036.92 546.5  3034.5 544.08  3034.5 541  C 3034.5 537.92  3036.92 535.5  3040 535.5  Z " stroke-width="1" stroke="#797979" fill="none" />
  <path d="M 3040 544  C 3038.32 544  3037 542.68  3037 541  C 3037 539.32  3038.32 538  3040 538  C 3041.68 538  3043 539.32  3043 541  C 3043 542.68  3041.68 544  3040 544  " fill-rule="nonzero" fill="#797979" stroke="none" />
</svg>