<?xml version="1.0" encoding="utf-8"?>
<svg version="1.1" xmlns:xlink="http://www.w3.org/1999/xlink" width="12px" height="12px" viewBox="3254 535  12 12" xmlns="http://www.w3.org/2000/svg">
  <path d="M 3260 535  C 3263.36 535  3266 537.64  3266 541  C 3266 544.36  3263.36 547  3260 547  C 3256.64 547  3254 544.36  3254 541  C 3254 537.64  3256.64 535  3260 535  Z " fill-rule="nonzero" fill="#ffffff" stroke="none" />
  <path d="M 3260 535.5  C 3263.08 535.5  3265.5 537.92  3265.5 541  C 3265.5 544.08  3263.08 546.5  3260 546.5  C 3256.92 546.5  3254.5 544.08  3254.5 541  C 3254.5 537.92  3256.92 535.5  3260 535.5  Z " stroke-width="1" stroke="#797979" fill="none" />
  <path d="M 3260 544  C 3258.32 544  3257 542.68  3257 541  C 3257 539.32  3258.32 538  3260 538  C 3261.68 538  3263 539.32  3263 541  C 3263 542.68  3261.68 544  3260 544  " fill-rule="nonzero" fill="#797979" stroke="none" />
</svg>