<?xml version="1.0" encoding="utf-8"?>
<svg version="1.1" xmlns:xlink="http://www.w3.org/1999/xlink" width="12px" height="12px" viewBox="3769 365  12 12" xmlns="http://www.w3.org/2000/svg">
  <path d="M 3775 365  C 3778.36 365  3781 367.64  3781 371  C 3781 374.36  3778.36 377  3775 377  C 3771.64 377  3769 374.36  3769 371  C 3769 367.64  3771.64 365  3775 365  Z " fill-rule="nonzero" fill="#ffffff" stroke="none" />
  <path d="M 3775 365.5  C 3778.08 365.5  3780.5 367.92  3780.5 371  C 3780.5 374.08  3778.08 376.5  3775 376.5  C 3771.92 376.5  3769.5 374.08  3769.5 371  C 3769.5 367.92  3771.92 365.5  3775 365.5  Z " stroke-width="1" stroke="#797979" fill="none" />
  <path d="M 3775 374  C 3773.32 374  3772 372.68  3772 371  C 3772 369.32  3773.32 368  3775 368  C 3776.68 368  3778 369.32  3778 371  C 3778 372.68  3776.68 374  3775 374  " fill-rule="nonzero" fill="#797979" stroke="none" />
</svg>