<?xml version="1.0" encoding="utf-8"?>
<svg version="1.1" xmlns:xlink="http://www.w3.org/1999/xlink" width="12px" height="12px" viewBox="3689 365  12 12" xmlns="http://www.w3.org/2000/svg">
  <path d="M 3695 365  C 3698.36 365  3701 367.64  3701 371  C 3701 374.36  3698.36 377  3695 377  C 3691.64 377  3689 374.36  3689 371  C 3689 367.64  3691.64 365  3695 365  Z " fill-rule="nonzero" fill="#ffffff" stroke="none" />
  <path d="M 3695 365.5  C 3698.08 365.5  3700.5 367.92  3700.5 371  C 3700.5 374.08  3698.08 376.5  3695 376.5  C 3691.92 376.5  3689.5 374.08  3689.5 371  C 3689.5 367.92  3691.92 365.5  3695 365.5  Z " stroke-width="1" stroke="#797979" fill="none" />
  <path d="M 3695 374  C 3693.32 374  3692 372.68  3692 371  C 3692 369.32  3693.32 368  3695 368  C 3696.68 368  3698 369.32  3698 371  C 3698 372.68  3696.68 374  3695 374  " fill-rule="nonzero" fill="#797979" stroke="none" />
</svg>