<?xml version="1.0" encoding="utf-8"?>
<svg version="1.1" xmlns:xlink="http://www.w3.org/1999/xlink" width="12px" height="12px" viewBox="3799 455  12 12" xmlns="http://www.w3.org/2000/svg">
  <path d="M 3805 455  C 3808.36 455  3811 457.64  3811 461  C 3811 464.36  3808.36 467  3805 467  C 3801.64 467  3799 464.36  3799 461  C 3799 457.64  3801.64 455  3805 455  Z " fill-rule="nonzero" fill="#ffffff" stroke="none" />
  <path d="M 3805 455.5  C 3808.08 455.5  3810.5 457.92  3810.5 461  C 3810.5 464.08  3808.08 466.5  3805 466.5  C 3801.92 466.5  3799.5 464.08  3799.5 461  C 3799.5 457.92  3801.92 455.5  3805 455.5  Z " stroke-width="1" stroke="#797979" fill="none" />
  <path d="M 3805 464  C 3803.32 464  3802 462.68  3802 461  C 3802 459.32  3803.32 458  3805 458  C 3806.68 458  3808 459.32  3808 461  C 3808 462.68  3806.68 464  3805 464  " fill-rule="nonzero" fill="#797979" stroke="none" />
</svg>