<?xml version="1.0" encoding="utf-8"?>
<svg version="1.1" xmlns:xlink="http://www.w3.org/1999/xlink" width="12px" height="12px" viewBox="3909 535  12 12" xmlns="http://www.w3.org/2000/svg">
  <path d="M 3915 535  C 3918.36 535  3921 537.64  3921 541  C 3921 544.36  3918.36 547  3915 547  C 3911.64 547  3909 544.36  3909 541  C 3909 537.64  3911.64 535  3915 535  Z " fill-rule="nonzero" fill="#ffffff" stroke="none" />
  <path d="M 3915 535.5  C 3918.08 535.5  3920.5 537.92  3920.5 541  C 3920.5 544.08  3918.08 546.5  3915 546.5  C 3911.92 546.5  3909.5 544.08  3909.5 541  C 3909.5 537.92  3911.92 535.5  3915 535.5  Z " stroke-width="1" stroke="#797979" fill="none" />
  <path d="M 3915 544  C 3913.32 544  3912 542.68  3912 541  C 3912 539.32  3913.32 538  3915 538  C 3916.68 538  3918 539.32  3918 541  C 3918 542.68  3916.68 544  3915 544  " fill-rule="nonzero" fill="#797979" stroke="none" />
</svg>