<?xml version="1.0" encoding="utf-8"?>
<svg version="1.1" xmlns:xlink="http://www.w3.org/1999/xlink" width="12px" height="12px" viewBox="3799 535  12 12" xmlns="http://www.w3.org/2000/svg">
  <path d="M 3805 535  C 3808.36 535  3811 537.64  3811 541  C 3811 544.36  3808.36 547  3805 547  C 3801.64 547  3799 544.36  3799 541  C 3799 537.64  3801.64 535  3805 535  Z " fill-rule="nonzero" fill="#ffffff" stroke="none" />
  <path d="M 3805 535.5  C 3808.08 535.5  3810.5 537.92  3810.5 541  C 3810.5 544.08  3808.08 546.5  3805 546.5  C 3801.92 546.5  3799.5 544.08  3799.5 541  C 3799.5 537.92  3801.92 535.5  3805 535.5  Z " stroke-width="1" stroke="#797979" fill="none" />
  <path d="M 3805 544  C 3803.32 544  3802 542.68  3802 541  C 3802 539.32  3803.32 538  3805 538  C 3806.68 538  3808 539.32  3808 541  C 3808 542.68  3806.68 544  3805 544  " fill-rule="nonzero" fill="#797979" stroke="none" />
</svg>