<?xml version="1.0" encoding="utf-8"?>
<svg version="1.1" xmlns:xlink="http://www.w3.org/1999/xlink" width="12px" height="12px" viewBox="4344 365  12 12" xmlns="http://www.w3.org/2000/svg">
  <path d="M 4350 365  C 4353.36 365  4356 367.64  4356 371  C 4356 374.36  4353.36 377  4350 377  C 4346.64 377  4344 374.36  4344 371  C 4344 367.64  4346.64 365  4350 365  Z " fill-rule="nonzero" fill="#ffffff" stroke="none" />
  <path d="M 4350 365.5  C 4353.08 365.5  4355.5 367.92  4355.5 371  C 4355.5 374.08  4353.08 376.5  4350 376.5  C 4346.92 376.5  4344.5 374.08  4344.5 371  C 4344.5 367.92  4346.92 365.5  4350 365.5  Z " stroke-width="1" stroke="#797979" fill="none" />
  <path d="M 4350 374  C 4348.32 374  4347 372.68  4347 371  C 4347 369.32  4348.32 368  4350 368  C 4351.68 368  4353 369.32  4353 371  C 4353 372.68  4351.68 374  4350 374  " fill-rule="nonzero" fill="#797979" stroke="none" />
</svg>