<?xml version="1.0" encoding="utf-8"?>
<svg version="1.1" xmlns:xlink="http://www.w3.org/1999/xlink" width="12px" height="12px" viewBox="4504 365  12 12" xmlns="http://www.w3.org/2000/svg">
  <path d="M 4510 365  C 4513.36 365  4516 367.64  4516 371  C 4516 374.36  4513.36 377  4510 377  C 4506.64 377  4504 374.36  4504 371  C 4504 367.64  4506.64 365  4510 365  Z " fill-rule="nonzero" fill="#ffffff" stroke="none" />
  <path d="M 4510 365.5  C 4513.08 365.5  4515.5 367.92  4515.5 371  C 4515.5 374.08  4513.08 376.5  4510 376.5  C 4506.92 376.5  4504.5 374.08  4504.5 371  C 4504.5 367.92  4506.92 365.5  4510 365.5  Z " stroke-width="1" stroke="#797979" fill="none" />
  <path d="M 4510 374  C 4508.32 374  4507 372.68  4507 371  C 4507 369.32  4508.32 368  4510 368  C 4511.68 368  4513 369.32  4513 371  C 4513 372.68  4511.68 374  4510 374  " fill-rule="nonzero" fill="#797979" stroke="none" />
</svg>