<?xml version="1.0" encoding="utf-8"?>
<svg version="1.1" xmlns:xlink="http://www.w3.org/1999/xlink" width="12px" height="12px" viewBox="4584 365  12 12" xmlns="http://www.w3.org/2000/svg">
  <path d="M 4590 365  C 4593.36 365  4596 367.64  4596 371  C 4596 374.36  4593.36 377  4590 377  C 4586.64 377  4584 374.36  4584 371  C 4584 367.64  4586.64 365  4590 365  Z " fill-rule="nonzero" fill="#ffffff" stroke="none" />
  <path d="M 4590 365.5  C 4593.08 365.5  4595.5 367.92  4595.5 371  C 4595.5 374.08  4593.08 376.5  4590 376.5  C 4586.92 376.5  4584.5 374.08  4584.5 371  C 4584.5 367.92  4586.92 365.5  4590 365.5  Z " stroke-width="1" stroke="#797979" fill="none" />
  <path d="M 4590 374  C 4588.32 374  4587 372.68  4587 371  C 4587 369.32  4588.32 368  4590 368  C 4591.68 368  4593 369.32  4593 371  C 4593 372.68  4591.68 374  4590 374  " fill-rule="nonzero" fill="#797979" stroke="none" />
</svg>