<?xml version="1.0" encoding="utf-8"?>
<svg version="1.1" xmlns:xlink="http://www.w3.org/1999/xlink" width="12px" height="12px" viewBox="4344 575  12 12" xmlns="http://www.w3.org/2000/svg">
  <path d="M 4350 575  C 4353.36 575  4356 577.64  4356 581  C 4356 584.36  4353.36 587  4350 587  C 4346.64 587  4344 584.36  4344 581  C 4344 577.64  4346.64 575  4350 575  Z " fill-rule="nonzero" fill="#ffffff" stroke="none" />
  <path d="M 4350 575.5  C 4353.08 575.5  4355.5 577.92  4355.5 581  C 4355.5 584.08  4353.08 586.5  4350 586.5  C 4346.92 586.5  4344.5 584.08  4344.5 581  C 4344.5 577.92  4346.92 575.5  4350 575.5  Z " stroke-width="1" stroke="#797979" fill="none" />
  <path d="M 4350 584  C 4348.32 584  4347 582.68  4347 581  C 4347 579.32  4348.32 578  4350 578  C 4351.68 578  4353 579.32  4353 581  C 4353 582.68  4351.68 584  4350 584  " fill-rule="nonzero" fill="#797979" stroke="none" />
</svg>