<?xml version="1.0" encoding="utf-8"?>
<svg version="1.1" xmlns:xlink="http://www.w3.org/1999/xlink" width="12px" height="12px" viewBox="4454 575  12 12" xmlns="http://www.w3.org/2000/svg">
  <path d="M 4460 575  C 4463.36 575  4466 577.64  4466 581  C 4466 584.36  4463.36 587  4460 587  C 4456.64 587  4454 584.36  4454 581  C 4454 577.64  4456.64 575  4460 575  Z " fill-rule="nonzero" fill="#ffffff" stroke="none" />
  <path d="M 4460 575.5  C 4463.08 575.5  4465.5 577.92  4465.5 581  C 4465.5 584.08  4463.08 586.5  4460 586.5  C 4456.92 586.5  4454.5 584.08  4454.5 581  C 4454.5 577.92  4456.92 575.5  4460 575.5  Z " stroke-width="1" stroke="#797979" fill="none" />
  <path d="M 4460 584  C 4458.32 584  4457 582.68  4457 581  C 4457 579.32  4458.32 578  4460 578  C 4461.68 578  4463 579.32  4463 581  C 4463 582.68  4461.68 584  4460 584  " fill-rule="nonzero" fill="#797979" stroke="none" />
</svg>